<svg width="1920" height="60" viewBox="0 0 1920 60" fill="none" xmlns="http://www.w3.org/2000/svg">
<g clip-path="url(#clip0_2048_6528)">
<rect width="1920" height="60" fill="#D85535"/>
<path d="M1858 25.1436L1846.14 37.0014" stroke="white" stroke-width="2" stroke-linecap="round"/>
<path d="M1858 37L1846.14 25.1421" stroke="white" stroke-width="2" stroke-linecap="round"/>
<circle cx="1272.15" cy="41.5205" r="105.521" fill="white"/>
<path d="M1201.27 12.3965L1201.27 42.6196" stroke="#D85535"/>
<path d="M1205.8 16.1729L1205.8 42.618" stroke="#D85535"/>
<path d="M1210.34 18.8174L1210.34 42.6181" stroke="#D85535"/>
<path d="M1214.87 21.4619L1214.87 42.6181" stroke="#D85535"/>
<path d="M1219.4 23.7344L1219.4 42.6238" stroke="#D85535"/>
<path d="M1223.94 25.5166L1223.94 42.6219" stroke="#D85535"/>
<path d="M1228.47 28.2607L1228.47 42.6167" stroke="#D85535"/>
<path d="M1233 32.3184L1233 42.6234" stroke="#D85535"/>
<path d="M1237.55 34.583L1237.55 42.6213" stroke="#D85535"/>
<path d="M1242.08 36.8447L1242.08 42.6163" stroke="#D85535"/>
<path d="M1185.41 12.0186V39.9749" stroke="#D85535"/>
<path d="M1180.88 15.4229L1180.88 40.3569" stroke="#D85535"/>
<path d="M1176.33 17.6846L1176.33 40.3519" stroke="#D85535"/>
<path d="M1171.8 19.5713L1171.8 40.3497" stroke="#D85535"/>
<path d="M1167.26 22.5937L1167.26 40.3498" stroke="#D85535"/>
<path d="M1162.73 25.6182L1162.73 40.3519" stroke="#D85535"/>
<path d="M1158.21 27.5078L1158.21 40.3526" stroke="#D85535"/>
<path d="M1153.68 30.1582L1153.68 40.3585" stroke="#D85535"/>
<path d="M1149.13 33.5547L1149.13 40.3549" stroke="#D85535"/>
<path d="M1144.6 35.0674L1144.6 40.3564" stroke="#D85535"/>
<path d="M1193.17 3.21777V74.5303" stroke="#D85535" stroke-width="10"/>
<path d="M1193.17 3.21777V4.72893" stroke="#D85535" stroke-width="12"/>
<path d="M1193.17 2.46582V3.97697" stroke="#D85535" stroke-width="7"/>
<path d="M1193.17 56.4912V74.5355" stroke="#D85535" stroke-width="15"/>
<path d="M1131 41.7021H1187.48C1191.58 41.7021 1194.64 42.2354 1194.64 52.799" stroke="#D85535" stroke-width="5"/>
<path d="M1272.67 42.0879H1197.73C1194.42 42.0879 1191.95 42.5993 1191.95 52.7312" stroke="#D85535" stroke-width="5"/>
<path d="M1260.21 42.1387H1272.67" stroke="#D85535" stroke-width="5"/>
<path d="M1131 41.4832C1134.78 41.4832 1191.45 10.8824 1191.45 4.45996" stroke="#D85535" stroke-width="5"/>
<path d="M1260.21 42.1341C1243.96 42.1341 1194.47 10.5046 1194.47 4.45996" stroke="#D85535" stroke-width="5"/>
<path d="M1343.72 12.3965L1343.72 42.6196" stroke="#D85535"/>
<path d="M1339.2 16.1729L1339.2 42.618" stroke="#D85535"/>
<path d="M1334.65 18.8174L1334.65 42.6181" stroke="#D85535"/>
<path d="M1330.12 21.4619L1330.12 42.6181" stroke="#D85535"/>
<path d="M1325.59 23.7344L1325.59 42.6238" stroke="#D85535"/>
<path d="M1321.05 25.5166L1321.05 42.6219" stroke="#D85535"/>
<path d="M1316.53 28.2607L1316.53 42.6167" stroke="#D85535"/>
<path d="M1312 32.3184L1312 42.6234" stroke="#D85535"/>
<path d="M1307.46 34.583L1307.46 42.6213" stroke="#D85535"/>
<path d="M1302.92 36.8447L1302.92 42.6163" stroke="#D85535"/>
<path d="M1359.58 12.0186V39.9749" stroke="#D85535"/>
<path d="M1364.11 15.4229L1364.11 40.3569" stroke="#D85535"/>
<path d="M1368.66 17.6846L1368.66 40.3519" stroke="#D85535"/>
<path d="M1373.19 19.5713L1373.19 40.3497" stroke="#D85535"/>
<path d="M1377.73 22.5937L1377.73 40.3498" stroke="#D85535"/>
<path d="M1382.26 25.6182L1382.26 40.3519" stroke="#D85535"/>
<path d="M1386.79 27.5078L1386.79 40.3526" stroke="#D85535"/>
<path d="M1391.32 30.1582L1391.32 40.3585" stroke="#D85535"/>
<path d="M1395.86 33.5547L1395.86 40.3549" stroke="#D85535"/>
<path d="M1400.39 35.0674L1400.39 40.3564" stroke="#D85535"/>
<path d="M1351.82 3.21777V74.5303" stroke="#D85535" stroke-width="10"/>
<path d="M1351.82 3.21777V4.72893" stroke="#D85535" stroke-width="12"/>
<path d="M1351.82 2.46582V3.97697" stroke="#D85535" stroke-width="7"/>
<path d="M1351.82 56.4912V74.5355" stroke="#D85535" stroke-width="15"/>
<path d="M1413.99 41.7021H1357.51C1353.41 41.7021 1350.35 42.2354 1350.35 52.799" stroke="#D85535" stroke-width="5"/>
<path d="M1272.32 42.0879H1347.26C1350.57 42.0879 1353.03 42.5993 1353.03 52.7312" stroke="#D85535" stroke-width="5"/>
<path d="M1284.79 42.1387H1272.32" stroke="#D85535" stroke-width="5"/>
<path d="M1413.99 41.4832C1410.21 41.4832 1353.55 10.8824 1353.55 4.45996" stroke="#D85535" stroke-width="5"/>
<path d="M1284.78 42.1341C1301.03 42.1341 1350.52 10.5046 1350.52 4.45996" stroke="#D85535" stroke-width="5"/>
<path d="M519.471 34.58C519.471 36.08 518.481 36.86 516.771 36.86H512.991V32.21H516.711C518.421 32.21 519.471 33.08 519.471 34.58ZM518.961 26.27C518.961 27.71 518.031 28.46 516.351 28.46H512.991V24.05H516.351C518.031 24.05 518.961 24.83 518.961 26.27ZM524.661 35.27C524.661 32.87 523.071 30.71 520.611 30.2C522.651 29.6 524.181 27.95 524.181 25.4C524.181 22.07 521.631 19.94 517.341 19.94H507.861V41H517.671C522.111 41 524.661 38.75 524.661 35.27ZM532.766 33.23C532.766 30.35 534.176 29.51 536.606 29.51H538.016V24.08C535.766 24.08 533.936 25.28 532.766 27.05V24.26H527.636V41H532.766V33.23ZM540.468 41H545.598V24.26H540.468V41ZM543.048 22.52C544.848 22.52 546.078 21.29 546.078 19.76C546.078 18.2 544.848 16.97 543.048 16.97C541.218 16.97 539.988 18.2 539.988 19.76C539.988 21.29 541.218 22.52 543.048 22.52ZM548.296 32.6C548.296 37.88 551.566 41.24 555.676 41.24C558.136 41.24 559.906 40.07 560.836 38.6V40.97C560.836 43.79 559.306 44.81 557.356 44.81C555.586 44.81 554.326 44 553.996 42.74H548.926C549.376 46.73 552.616 49.25 557.596 49.25C563.386 49.25 565.966 45.44 565.966 40.97V24.26H560.836V26.63C559.936 25.13 558.136 24.02 555.676 24.02C551.566 24.02 548.296 27.32 548.296 32.6ZM560.836 32.63C560.836 35.3 559.126 36.77 557.176 36.77C555.256 36.77 553.516 35.27 553.516 32.6C553.516 29.93 555.256 28.49 557.176 28.49C559.126 28.49 560.836 29.96 560.836 32.63ZM569.677 41H574.807V31.91C574.807 29.63 576.067 28.37 578.017 28.37C579.967 28.37 581.227 29.63 581.227 31.91V41H586.327V31.22C586.327 26.72 583.777 24.08 579.967 24.08C577.657 24.08 575.827 25.07 574.807 26.51V18.8H569.677V41ZM590.702 35.18C590.702 39.53 593.132 41 596.612 41H599.222V36.65H597.392C596.252 36.65 595.832 36.23 595.832 35.24V28.52H599.192V24.26H595.832V20.18H590.702V24.26H588.662V28.52H590.702V35.18ZM620.047 34.58C620.047 36.08 619.057 36.86 617.347 36.86H613.567V32.21H617.287C618.997 32.21 620.047 33.08 620.047 34.58ZM619.537 26.27C619.537 27.71 618.607 28.46 616.927 28.46H613.567V24.05H616.927C618.607 24.05 619.537 24.83 619.537 26.27ZM625.237 35.27C625.237 32.87 623.647 30.71 621.187 30.2C623.227 29.6 624.757 27.95 624.757 25.4C624.757 22.07 622.207 19.94 617.917 19.94H608.437V41H618.247C622.687 41 625.237 38.75 625.237 35.27ZM633.343 33.23C633.343 30.35 634.753 29.51 637.183 29.51H638.593V24.08C636.343 24.08 634.513 25.28 633.343 27.05V24.26H628.213V41H633.343V33.23ZM641.045 41H646.175V24.26H641.045V41ZM643.625 22.52C645.425 22.52 646.655 21.29 646.655 19.76C646.655 18.2 645.425 16.97 643.625 16.97C641.795 16.97 640.565 18.2 640.565 19.76C640.565 21.29 641.795 22.52 643.625 22.52ZM648.872 32.6C648.872 37.88 652.142 41.24 656.252 41.24C658.712 41.24 660.482 40.13 661.412 38.6V41H666.542V18.8H661.412V26.57C660.392 25.04 658.472 24.02 656.252 24.02C652.142 24.02 648.872 27.32 648.872 32.6ZM661.412 32.63C661.412 35.3 659.702 36.77 657.752 36.77C655.832 36.77 654.092 35.27 654.092 32.6C654.092 29.93 655.832 28.49 657.752 28.49C659.702 28.49 661.412 29.96 661.412 32.63ZM669.234 32.6C669.234 37.88 672.504 41.24 676.614 41.24C679.074 41.24 680.844 40.07 681.774 38.6V40.97C681.774 43.79 680.244 44.81 678.294 44.81C676.524 44.81 675.264 44 674.934 42.74H669.864C670.314 46.73 673.554 49.25 678.534 49.25C684.324 49.25 686.904 45.44 686.904 40.97V24.26H681.774V26.63C680.874 25.13 679.074 24.02 676.614 24.02C672.504 24.02 669.234 27.32 669.234 32.6ZM681.774 32.63C681.774 35.3 680.064 36.77 678.114 36.77C676.194 36.77 674.454 35.27 674.454 32.6C674.454 29.93 676.194 28.49 678.114 28.49C680.064 28.49 681.774 29.96 681.774 32.63ZM697.995 28.13C699.705 28.13 701.145 29.18 701.145 31.01H694.725C695.025 29.15 696.315 28.13 697.995 28.13ZM706.005 35.45H700.545C700.125 36.35 699.315 37.07 697.875 37.07C696.225 37.07 694.875 36.05 694.695 33.86H706.305C706.365 33.35 706.395 32.84 706.395 32.36C706.395 27.26 702.945 24.02 698.055 24.02C693.075 24.02 689.595 27.32 689.595 32.63C689.595 37.94 693.135 41.24 698.055 41.24C702.225 41.24 705.195 38.72 706.005 35.45ZM719.689 41H725.899L729.379 27.14L732.739 41H738.949L744.439 19.94H738.919L735.859 35.27L732.259 19.94H726.619L722.869 35.27L719.839 19.94H714.349L719.689 41ZM754.391 28.13C756.101 28.13 757.541 29.18 757.541 31.01H751.121C751.421 29.15 752.711 28.13 754.391 28.13ZM762.401 35.45H756.941C756.521 36.35 755.711 37.07 754.271 37.07C752.621 37.07 751.271 36.05 751.091 33.86H762.701C762.761 33.35 762.791 32.84 762.791 32.36C762.791 27.26 759.341 24.02 754.451 24.02C749.471 24.02 745.991 27.32 745.991 32.63C745.991 37.94 749.531 41.24 754.451 41.24C758.621 41.24 761.591 38.72 762.401 35.45ZM770.628 26.63V18.8H765.498V41H770.628V38.66C771.558 40.13 773.328 41.24 775.788 41.24C779.898 41.24 783.168 37.88 783.168 32.6C783.168 27.32 779.928 24.02 775.788 24.02C773.388 24.02 771.558 25.13 770.628 26.63ZM777.948 32.6C777.948 35.27 776.208 36.77 774.258 36.77C772.338 36.77 770.598 35.3 770.598 32.63C770.598 29.96 772.338 28.49 774.258 28.49C776.208 28.49 777.948 29.93 777.948 32.6Z" fill="white"/>
<path d="M818.836 33.5H822.396V18.9H816.856V22.08H818.836V33.5ZM824.736 26C824.736 30.32 826.196 33.44 830.356 33.44C834.516 33.44 835.976 30.32 835.976 26C835.976 21.72 834.516 18.6 830.356 18.6C826.196 18.6 824.736 21.72 824.736 26ZM832.616 26C832.616 28.32 832.376 30.24 830.356 30.24C828.336 30.24 828.096 28.32 828.096 26C828.096 23.76 828.336 21.8 830.356 21.8C832.376 21.8 832.616 23.76 832.616 26ZM837.503 22.58C837.503 24.8 838.943 25.96 840.843 25.96C842.743 25.96 844.163 24.8 844.163 22.58C844.163 20.36 842.743 19.2 840.843 19.2C838.943 19.2 837.503 20.36 837.503 22.58ZM840.823 21.2C841.423 21.2 841.803 21.62 841.803 22.58C841.803 23.52 841.423 23.94 840.823 23.94C840.223 23.94 839.863 23.52 839.863 22.58C839.863 21.62 840.223 21.2 840.823 21.2ZM840.083 33.5H843.383L851.083 19.42H847.783L840.083 33.5ZM847.023 30.34C847.023 32.56 848.443 33.72 850.343 33.72C852.243 33.72 853.663 32.56 853.663 30.34C853.663 28.1 852.243 26.96 850.343 26.96C848.443 26.96 847.023 28.1 847.023 30.34ZM850.323 28.96C850.923 28.96 851.303 29.4 851.303 30.34C851.303 31.28 850.923 31.7 850.323 31.7C849.723 31.7 849.363 31.28 849.363 30.34C849.363 29.4 849.723 28.96 850.323 28.96ZM870.683 27.92C870.683 24.38 868.163 22.18 864.883 22.18C861.623 22.18 859.083 24.38 859.083 27.92C859.083 31.46 861.563 33.66 864.843 33.66C868.123 33.66 870.683 31.46 870.683 27.92ZM862.563 27.92C862.563 26.02 863.643 25.14 864.883 25.14C866.083 25.14 867.203 26.02 867.203 27.92C867.203 29.8 866.063 30.7 864.843 30.7C863.603 30.7 862.563 29.8 862.563 27.92ZM872.838 33.5H876.258V25.18H878.098V22.34H876.258V22.24C876.258 21.06 876.718 20.66 878.038 20.74V17.84C874.638 17.66 872.838 19.1 872.838 22.02V22.34H871.598V25.18H872.838V33.5ZM880.045 33.5H883.465V25.18H885.305V22.34H883.465V22.24C883.465 21.06 883.925 20.66 885.245 20.74V17.84C881.845 17.66 880.045 19.1 880.045 22.02V22.34H878.805V25.18H880.045V33.5ZM902.07 27.92C902.07 24.38 899.55 22.18 896.27 22.18C893.01 22.18 890.47 24.38 890.47 27.92C890.47 31.46 892.95 33.66 896.23 33.66C899.51 33.66 902.07 31.46 902.07 27.92ZM893.95 27.92C893.95 26.02 895.03 25.14 896.27 25.14C897.47 25.14 898.59 26.02 898.59 27.92C898.59 29.8 897.45 30.7 896.23 30.7C894.99 30.7 893.95 29.8 893.95 27.92ZM904.225 33.5H907.645V25.18H909.485V22.34H907.645V22.24C907.645 21.06 908.105 20.66 909.425 20.74V17.84C906.025 17.66 904.225 19.1 904.225 22.02V22.34H902.985V25.18H904.225V33.5ZM915.33 33.5H918.75V27.44C918.75 25.92 919.59 25.08 920.89 25.08C922.19 25.08 923.03 25.92 923.03 27.44V33.5H926.43V26.98C926.43 23.98 924.73 22.22 922.19 22.22C920.65 22.22 919.43 22.88 918.75 23.84V18.7H915.33V33.5ZM939.726 27.92C939.726 24.38 937.206 22.18 933.926 22.18C930.666 22.18 928.126 24.38 928.126 27.92C928.126 31.46 930.606 33.66 933.886 33.66C937.166 33.66 939.726 31.46 939.726 27.92ZM931.606 27.92C931.606 26.02 932.686 25.14 933.926 25.14C935.126 25.14 936.246 26.02 936.246 27.92C936.246 29.8 935.106 30.7 933.886 30.7C932.646 30.7 931.606 29.8 931.606 27.92ZM952.561 22.34H949.141V28.4C949.141 29.92 948.301 30.76 946.981 30.76C945.701 30.76 944.841 29.92 944.841 28.4V22.34H941.441V28.86C941.441 31.84 943.181 33.62 945.761 33.62C947.261 33.62 948.461 32.94 949.141 31.98V33.5H952.561V22.34ZM958.437 28.32C958.437 26.4 959.377 25.84 960.997 25.84H961.937V22.22C960.437 22.22 959.217 23.02 958.437 24.2V22.34H955.017V33.5H958.437V28.32ZM963.572 33.5H966.992V18.7H963.572V33.5ZM974.61 29.32L972.03 22.34H968.21L972.75 33.12L970.19 38.8H973.87L980.87 22.34H977.17L974.61 29.32ZM989.765 28.32C989.765 26.4 990.705 25.84 992.325 25.84H993.265V22.22C991.765 22.22 990.545 23.02 989.765 24.2V22.34H986.345V33.5H989.765V28.32ZM994.22 27.9C994.22 31.42 996.4 33.66 999.12 33.66C1000.78 33.66 1001.96 32.9 1002.58 31.92V33.5H1006V22.34H1002.58V23.92C1001.98 22.94 1000.8 22.18 999.14 22.18C996.4 22.18 994.22 24.38 994.22 27.9ZM1002.58 27.92C1002.58 29.7 1001.44 30.68 1000.14 30.68C998.86 30.68 997.7 29.68 997.7 27.9C997.7 26.12 998.86 25.16 1000.14 25.16C1001.44 25.16 1002.58 26.14 1002.58 27.92ZM1009.01 29.62C1009.01 32.52 1010.63 33.5 1012.95 33.5H1014.69V30.6H1013.47C1012.71 30.6 1012.43 30.32 1012.43 29.66V25.18H1014.67V22.34H1012.43V19.62H1009.01V22.34H1007.65V25.18H1009.01V29.62ZM1021.52 24.92C1022.66 24.92 1023.62 25.62 1023.62 26.84H1019.34C1019.54 25.6 1020.4 24.92 1021.52 24.92ZM1026.86 29.8H1023.22C1022.94 30.4 1022.4 30.88 1021.44 30.88C1020.34 30.88 1019.44 30.2 1019.32 28.74H1027.06C1027.1 28.4 1027.12 28.06 1027.12 27.74C1027.12 24.34 1024.82 22.18 1021.56 22.18C1018.24 22.18 1015.92 24.38 1015.92 27.92C1015.92 31.46 1018.28 33.66 1021.56 33.66C1024.34 33.66 1026.32 31.98 1026.86 29.8Z" fill="white"/>
<path d="M818.62 44.005V44.295H817.65V47.5H817.3V44.295H816.325V44.005H818.62ZM820.473 44.72C820.68 44.72 820.865 44.7633 821.028 44.85C821.195 44.9367 821.325 45.07 821.418 45.25C821.515 45.4267 821.563 45.6433 821.563 45.9V47.5H821.218V45.94C821.218 45.6433 821.143 45.4167 820.993 45.26C820.846 45.1033 820.645 45.025 820.388 45.025C820.125 45.025 819.915 45.1083 819.758 45.275C819.601 45.4417 819.523 45.6867 819.523 46.01V47.5H819.173V43.8H819.523V45.235C819.61 45.0717 819.736 44.945 819.903 44.855C820.073 44.765 820.263 44.72 820.473 44.72ZM822.512 44.255C822.442 44.255 822.382 44.23 822.332 44.18C822.282 44.13 822.257 44.0683 822.257 43.995C822.257 43.9217 822.282 43.8617 822.332 43.815C822.382 43.765 822.442 43.74 822.512 43.74C822.582 43.74 822.642 43.765 822.692 43.815C822.742 43.8617 822.767 43.9217 822.767 43.995C822.767 44.0683 822.742 44.13 822.692 44.18C822.642 44.23 822.582 44.255 822.512 44.255ZM822.687 44.77V47.5H822.337V44.77H822.687ZM824.42 47.54C824.106 47.54 823.85 47.4683 823.65 47.325C823.453 47.1783 823.343 46.98 823.32 46.73H823.68C823.696 46.8833 823.768 47.0083 823.895 47.105C824.025 47.1983 824.198 47.245 824.415 47.245C824.605 47.245 824.753 47.2 824.86 47.11C824.97 47.02 825.025 46.9083 825.025 46.775C825.025 46.6817 824.995 46.605 824.935 46.545C824.875 46.485 824.798 46.4383 824.705 46.405C824.615 46.3683 824.491 46.33 824.335 46.29C824.131 46.2367 823.966 46.1833 823.84 46.13C823.713 46.0767 823.605 45.9983 823.515 45.895C823.428 45.7883 823.385 45.6467 823.385 45.47C823.385 45.3367 823.425 45.2133 823.505 45.1C823.585 44.9867 823.698 44.8967 823.845 44.83C823.991 44.7633 824.158 44.73 824.345 44.73C824.638 44.73 824.875 44.805 825.055 44.955C825.235 45.1017 825.331 45.305 825.345 45.565H824.995C824.985 45.405 824.921 45.2767 824.805 45.18C824.691 45.08 824.535 45.03 824.335 45.03C824.158 45.03 824.015 45.0717 823.905 45.155C823.795 45.2383 823.74 45.3417 823.74 45.465C823.74 45.5717 823.771 45.66 823.835 45.73C823.901 45.7967 823.983 45.85 824.08 45.89C824.176 45.9267 824.306 45.9683 824.47 46.015C824.666 46.0683 824.823 46.12 824.94 46.17C825.056 46.22 825.156 46.2933 825.24 46.39C825.323 46.4867 825.366 46.615 825.37 46.775C825.37 46.9217 825.33 47.0533 825.25 47.17C825.17 47.2833 825.058 47.3733 824.915 47.44C824.771 47.5067 824.606 47.54 824.42 47.54ZM828.595 47.54C828.339 47.54 828.107 47.4833 827.9 47.37C827.697 47.2533 827.535 47.09 827.415 46.88C827.299 46.6667 827.24 46.4183 827.24 46.135C827.24 45.8517 827.3 45.605 827.42 45.395C827.54 45.1817 827.704 45.0183 827.91 44.905C828.117 44.7883 828.349 44.73 828.605 44.73C828.862 44.73 829.094 44.7883 829.3 44.905C829.51 45.0183 829.674 45.1817 829.79 45.395C829.91 45.605 829.97 45.8517 829.97 46.135C829.97 46.415 829.91 46.6617 829.79 46.875C829.67 47.0883 829.505 47.2533 829.295 47.37C829.085 47.4833 828.852 47.54 828.595 47.54ZM828.595 47.235C828.775 47.235 828.942 47.195 829.095 47.115C829.249 47.0317 829.372 46.9083 829.465 46.745C829.562 46.5783 829.61 46.375 829.61 46.135C829.61 45.895 829.564 45.6933 829.47 45.53C829.377 45.3633 829.254 45.24 829.1 45.16C828.947 45.0767 828.78 45.035 828.6 45.035C828.42 45.035 828.254 45.0767 828.1 45.16C827.947 45.24 827.824 45.3633 827.73 45.53C827.64 45.6933 827.595 45.895 827.595 46.135C827.595 46.375 827.64 46.5783 827.73 46.745C827.824 46.9083 827.945 47.0317 828.095 47.115C828.249 47.195 828.415 47.235 828.595 47.235ZM831.683 45.065H831.048V47.5H830.698V45.065H830.318V44.77H830.698V44.58C830.698 44.2833 830.773 44.065 830.923 43.925C831.077 43.785 831.323 43.715 831.663 43.715V44.015C831.437 44.015 831.277 44.0583 831.183 44.145C831.093 44.2317 831.048 44.3767 831.048 44.58V44.77H831.683V45.065ZM833.309 45.065H832.674V47.5H832.324V45.065H831.944V44.77H832.324V44.58C832.324 44.2833 832.399 44.065 832.549 43.925C832.703 43.785 832.949 43.715 833.289 43.715V44.015C833.063 44.015 832.903 44.0583 832.809 44.145C832.719 44.2317 832.674 44.3767 832.674 44.58V44.77H833.309V45.065ZM836.33 45.995C836.33 46.115 836.327 46.2067 836.32 46.27H834.055C834.065 46.4767 834.115 46.6533 834.205 46.8C834.295 46.9467 834.414 47.0583 834.56 47.135C834.707 47.2083 834.867 47.245 835.04 47.245C835.267 47.245 835.457 47.19 835.61 47.08C835.767 46.97 835.87 46.8217 835.92 46.635H836.29C836.224 46.9017 836.08 47.12 835.86 47.29C835.644 47.4567 835.37 47.54 835.04 47.54C834.784 47.54 834.554 47.4833 834.35 47.37C834.147 47.2533 833.987 47.09 833.87 46.88C833.757 46.6667 833.7 46.4183 833.7 46.135C833.7 45.8517 833.757 45.6033 833.87 45.39C833.984 45.1767 834.142 45.0133 834.345 44.9C834.549 44.7867 834.78 44.73 835.04 44.73C835.3 44.73 835.527 44.7867 835.72 44.9C835.917 45.0133 836.067 45.1667 836.17 45.36C836.277 45.55 836.33 45.7617 836.33 45.995ZM835.975 45.985C835.979 45.7817 835.937 45.6083 835.85 45.465C835.767 45.3217 835.652 45.2133 835.505 45.14C835.359 45.0667 835.199 45.03 835.025 45.03C834.765 45.03 834.544 45.1133 834.36 45.28C834.177 45.4467 834.075 45.6817 834.055 45.985H835.975ZM837.321 45.255C837.397 45.085 837.514 44.9533 837.671 44.86C837.831 44.7667 838.026 44.72 838.256 44.72V45.085H838.161C837.907 45.085 837.704 45.1533 837.551 45.29C837.397 45.4267 837.321 45.655 837.321 45.975V47.5H836.971V44.77H837.321V45.255ZM840.329 44.255C840.259 44.255 840.199 44.23 840.149 44.18C840.099 44.13 840.074 44.0683 840.074 43.995C840.074 43.9217 840.099 43.8617 840.149 43.815C840.199 43.765 840.259 43.74 840.329 43.74C840.399 43.74 840.459 43.765 840.509 43.815C840.559 43.8617 840.584 43.9217 840.584 43.995C840.584 44.0683 840.559 44.13 840.509 44.18C840.459 44.23 840.399 44.255 840.329 44.255ZM840.504 44.77V47.5H840.154V44.77H840.504ZM842.237 47.54C841.924 47.54 841.667 47.4683 841.467 47.325C841.27 47.1783 841.16 46.98 841.137 46.73H841.497C841.514 46.8833 841.585 47.0083 841.712 47.105C841.842 47.1983 842.015 47.245 842.232 47.245C842.422 47.245 842.57 47.2 842.677 47.11C842.787 47.02 842.842 46.9083 842.842 46.775C842.842 46.6817 842.812 46.605 842.752 46.545C842.692 46.485 842.615 46.4383 842.522 46.405C842.432 46.3683 842.309 46.33 842.152 46.29C841.949 46.2367 841.784 46.1833 841.657 46.13C841.53 46.0767 841.422 45.9983 841.332 45.895C841.245 45.7883 841.202 45.6467 841.202 45.47C841.202 45.3367 841.242 45.2133 841.322 45.1C841.402 44.9867 841.515 44.8967 841.662 44.83C841.809 44.7633 841.975 44.73 842.162 44.73C842.455 44.73 842.692 44.805 842.872 44.955C843.052 45.1017 843.149 45.305 843.162 45.565H842.812C842.802 45.405 842.739 45.2767 842.622 45.18C842.509 45.08 842.352 45.03 842.152 45.03C841.975 45.03 841.832 45.0717 841.722 45.155C841.612 45.2383 841.557 45.3417 841.557 45.465C841.557 45.5717 841.589 45.66 841.652 45.73C841.719 45.7967 841.8 45.85 841.897 45.89C841.994 45.9267 842.124 45.9683 842.287 46.015C842.484 46.0683 842.64 46.12 842.757 46.17C842.874 46.22 842.974 46.2933 843.057 46.39C843.14 46.4867 843.184 46.615 843.187 46.775C843.187 46.9217 843.147 47.0533 843.067 47.17C842.987 47.2833 842.875 47.3733 842.732 47.44C842.589 47.5067 842.424 47.54 842.237 47.54ZM846.413 47.54C846.156 47.54 845.925 47.4833 845.718 47.37C845.515 47.2533 845.353 47.09 845.233 46.88C845.116 46.6667 845.058 46.4183 845.058 46.135C845.058 45.8517 845.118 45.605 845.238 45.395C845.358 45.1817 845.521 45.0183 845.728 44.905C845.935 44.7883 846.166 44.73 846.423 44.73C846.68 44.73 846.911 44.7883 847.118 44.905C847.328 45.0183 847.491 45.1817 847.608 45.395C847.728 45.605 847.788 45.8517 847.788 46.135C847.788 46.415 847.728 46.6617 847.608 46.875C847.488 47.0883 847.323 47.2533 847.113 47.37C846.903 47.4833 846.67 47.54 846.413 47.54ZM846.413 47.235C846.593 47.235 846.76 47.195 846.913 47.115C847.066 47.0317 847.19 46.9083 847.283 46.745C847.38 46.5783 847.428 46.375 847.428 46.135C847.428 45.895 847.381 45.6933 847.288 45.53C847.195 45.3633 847.071 45.24 846.918 45.16C846.765 45.0767 846.598 45.035 846.418 45.035C846.238 45.035 846.071 45.0767 845.918 45.16C845.765 45.24 845.641 45.3633 845.548 45.53C845.458 45.6933 845.413 45.895 845.413 46.135C845.413 46.375 845.458 46.5783 845.548 46.745C845.641 46.9083 845.763 47.0317 845.913 47.115C846.066 47.195 846.233 47.235 846.413 47.235ZM849.706 44.72C850.033 44.72 850.299 44.8217 850.506 45.025C850.713 45.225 850.816 45.5167 850.816 45.9V47.5H850.471V45.94C850.471 45.6433 850.396 45.4167 850.246 45.26C850.099 45.1033 849.898 45.025 849.641 45.025C849.378 45.025 849.168 45.1083 849.011 45.275C848.854 45.4417 848.776 45.6867 848.776 46.01V47.5H848.426V44.77H848.776V45.235C848.863 45.0683 848.988 44.9417 849.151 44.855C849.314 44.765 849.499 44.72 849.706 44.72ZM851.94 43.8V47.5H851.59V43.8H851.94ZM854.983 44.77L853.363 48.785H852.998L853.528 47.485L852.408 44.77H852.793L853.723 47.1L854.623 44.77H854.983ZM857.799 47.16L858.719 44.77H859.089L857.994 47.5H857.599L856.504 44.77H856.879L857.799 47.16ZM859.404 46.13C859.404 45.85 859.459 45.605 859.569 45.395C859.682 45.1817 859.837 45.0183 860.034 44.905C860.234 44.7883 860.459 44.73 860.709 44.73C860.969 44.73 861.192 44.79 861.379 44.91C861.569 45.03 861.705 45.1833 861.789 45.37V44.77H862.139V47.5H861.789V46.895C861.702 47.0817 861.564 47.2367 861.374 47.36C861.187 47.48 860.964 47.54 860.704 47.54C860.457 47.54 860.234 47.4817 860.034 47.365C859.837 47.2483 859.682 47.0833 859.569 46.87C859.459 46.6567 859.404 46.41 859.404 46.13ZM861.789 46.135C861.789 45.915 861.744 45.7217 861.654 45.555C861.564 45.3883 861.44 45.26 861.284 45.17C861.13 45.08 860.96 45.035 860.774 45.035C860.58 45.035 860.407 45.0783 860.254 45.165C860.1 45.2517 859.979 45.3783 859.889 45.545C859.802 45.7083 859.759 45.9033 859.759 46.13C859.759 46.3533 859.802 46.55 859.889 46.72C859.979 46.8867 860.1 47.015 860.254 47.105C860.407 47.1917 860.58 47.235 860.774 47.235C860.96 47.235 861.13 47.19 861.284 47.1C861.44 47.01 861.564 46.8817 861.654 46.715C861.744 46.5483 861.789 46.355 861.789 46.135ZM863.288 43.8V47.5H862.938V43.8H863.288ZM864.255 44.255C864.185 44.255 864.125 44.23 864.075 44.18C864.025 44.13 864 44.0683 864 43.995C864 43.9217 864.025 43.8617 864.075 43.815C864.125 43.765 864.185 43.74 864.255 43.74C864.325 43.74 864.385 43.765 864.435 43.815C864.485 43.8617 864.51 43.9217 864.51 43.995C864.51 44.0683 864.485 44.13 864.435 44.18C864.385 44.23 864.325 44.255 864.255 44.255ZM864.43 44.77V47.5H864.08V44.77H864.43ZM865.063 46.13C865.063 45.85 865.119 45.605 865.233 45.395C865.346 45.1817 865.501 45.0183 865.698 44.905C865.898 44.7883 866.123 44.73 866.373 44.73C866.613 44.73 866.829 44.7883 867.023 44.905C867.216 45.0217 867.358 45.1733 867.448 45.36V43.8H867.798V47.5H867.448V46.89C867.364 47.08 867.228 47.2367 867.038 47.36C866.848 47.48 866.624 47.54 866.368 47.54C866.118 47.54 865.893 47.4817 865.693 47.365C865.496 47.2483 865.341 47.0833 865.228 46.87C865.118 46.6567 865.063 46.41 865.063 46.13ZM867.448 46.135C867.448 45.915 867.403 45.7217 867.313 45.555C867.223 45.3883 867.099 45.26 866.943 45.17C866.789 45.08 866.619 45.035 866.433 45.035C866.239 45.035 866.066 45.0783 865.913 45.165C865.759 45.2517 865.638 45.3783 865.548 45.545C865.461 45.7083 865.418 45.9033 865.418 46.13C865.418 46.3533 865.461 46.55 865.548 46.72C865.638 46.8867 865.759 47.015 865.913 47.105C866.066 47.1917 866.239 47.235 866.433 47.235C866.619 47.235 866.789 47.19 866.943 47.1C867.099 47.01 867.223 46.8817 867.313 46.715C867.403 46.5483 867.448 46.355 867.448 46.135ZM870.424 45.065V46.76C870.424 46.9267 870.456 47.0417 870.519 47.105C870.582 47.1683 870.694 47.2 870.854 47.2H871.174V47.5H870.799C870.552 47.5 870.369 47.4433 870.249 47.33C870.129 47.2133 870.069 47.0233 870.069 46.76V45.065H869.689V44.77H870.069V44.085H870.424V44.77H871.174V45.065H870.424ZM873.051 44.72C873.258 44.72 873.443 44.7633 873.606 44.85C873.773 44.9367 873.903 45.07 873.996 45.25C874.093 45.4267 874.141 45.6433 874.141 45.9V47.5H873.796V45.94C873.796 45.6433 873.721 45.4167 873.571 45.26C873.424 45.1033 873.223 45.025 872.966 45.025C872.703 45.025 872.493 45.1083 872.336 45.275C872.179 45.4417 872.101 45.6867 872.101 46.01V47.5H871.751V43.8H872.101V45.235C872.188 45.0717 872.314 44.945 872.481 44.855C872.651 44.765 872.841 44.72 873.051 44.72ZM875.265 45.255C875.342 45.085 875.458 44.9533 875.615 44.86C875.775 44.7667 875.97 44.72 876.2 44.72V45.085H876.105C875.852 45.085 875.648 45.1533 875.495 45.29C875.342 45.4267 875.265 45.655 875.265 45.975V47.5H874.915V44.77H875.265V45.255ZM877.922 47.54C877.665 47.54 877.433 47.4833 877.227 47.37C877.023 47.2533 876.862 47.09 876.742 46.88C876.625 46.6667 876.567 46.4183 876.567 46.135C876.567 45.8517 876.627 45.605 876.747 45.395C876.867 45.1817 877.03 45.0183 877.237 44.905C877.443 44.7883 877.675 44.73 877.932 44.73C878.188 44.73 878.42 44.7883 878.627 44.905C878.837 45.0183 879 45.1817 879.117 45.395C879.237 45.605 879.297 45.8517 879.297 46.135C879.297 46.415 879.237 46.6617 879.117 46.875C878.997 47.0883 878.832 47.2533 878.622 47.37C878.412 47.4833 878.178 47.54 877.922 47.54ZM877.922 47.235C878.102 47.235 878.268 47.195 878.422 47.115C878.575 47.0317 878.698 46.9083 878.792 46.745C878.888 46.5783 878.937 46.375 878.937 46.135C878.937 45.895 878.89 45.6933 878.797 45.53C878.703 45.3633 878.58 45.24 878.427 45.16C878.273 45.0767 878.107 45.035 877.927 45.035C877.747 45.035 877.58 45.0767 877.427 45.16C877.273 45.24 877.15 45.3633 877.057 45.53C876.967 45.6933 876.922 45.895 876.922 46.135C876.922 46.375 876.967 46.5783 877.057 46.745C877.15 46.9083 877.272 47.0317 877.422 47.115C877.575 47.195 877.742 47.235 877.922 47.235ZM882.3 44.77V47.5H881.95V47.02C881.87 47.19 881.746 47.32 881.58 47.41C881.413 47.5 881.226 47.545 881.02 47.545C880.693 47.545 880.426 47.445 880.22 47.245C880.013 47.0417 879.91 46.7483 879.91 46.365V44.77H880.255V46.325C880.255 46.6217 880.328 46.8483 880.475 47.005C880.625 47.1617 880.828 47.24 881.085 47.24C881.348 47.24 881.558 47.1567 881.715 46.99C881.871 46.8233 881.95 46.5783 881.95 46.255V44.77H882.3ZM884.244 44.73C884.5 44.73 884.724 44.79 884.914 44.91C885.104 45.03 885.24 45.1817 885.324 45.365V44.77H885.674V47.57C885.674 47.82 885.619 48.0417 885.509 48.235C885.402 48.4283 885.252 48.5767 885.059 48.68C884.865 48.7867 884.645 48.84 884.399 48.84C884.049 48.84 883.757 48.7567 883.524 48.59C883.294 48.4233 883.15 48.1967 883.094 47.91H883.439C883.499 48.1 883.612 48.2517 883.779 48.365C883.949 48.4783 884.155 48.535 884.399 48.535C884.575 48.535 884.734 48.4967 884.874 48.42C885.014 48.3467 885.124 48.2367 885.204 48.09C885.284 47.9433 885.324 47.77 885.324 47.57V46.895C885.237 47.0817 885.099 47.2367 884.909 47.36C884.722 47.48 884.5 47.54 884.244 47.54C883.994 47.54 883.769 47.4817 883.569 47.365C883.372 47.2483 883.217 47.0833 883.104 46.87C882.994 46.6567 882.939 46.41 882.939 46.13C882.939 45.85 882.994 45.605 883.104 45.395C883.217 45.1817 883.372 45.0183 883.569 44.905C883.769 44.7883 883.994 44.73 884.244 44.73ZM885.324 46.135C885.324 45.915 885.279 45.7217 885.189 45.555C885.099 45.3883 884.975 45.26 884.819 45.17C884.665 45.08 884.495 45.035 884.309 45.035C884.115 45.035 883.942 45.0783 883.789 45.165C883.635 45.2517 883.514 45.3783 883.424 45.545C883.337 45.7083 883.294 45.9033 883.294 46.13C883.294 46.3533 883.337 46.55 883.424 46.72C883.514 46.8867 883.635 47.015 883.789 47.105C883.942 47.1917 884.115 47.235 884.309 47.235C884.495 47.235 884.665 47.19 884.819 47.1C884.975 47.01 885.099 46.8817 885.189 46.715C885.279 46.5483 885.324 46.355 885.324 46.135ZM887.773 44.72C887.979 44.72 888.164 44.7633 888.328 44.85C888.494 44.9367 888.624 45.07 888.718 45.25C888.814 45.4267 888.863 45.6433 888.863 45.9V47.5H888.518V45.94C888.518 45.6433 888.443 45.4167 888.293 45.26C888.146 45.1033 887.944 45.025 887.688 45.025C887.424 45.025 887.214 45.1083 887.058 45.275C886.901 45.4417 886.823 45.6867 886.823 46.01V47.5H886.473V43.8H886.823V45.235C886.909 45.0717 887.036 44.945 887.203 44.855C887.373 44.765 887.563 44.72 887.773 44.72ZM892.994 44.79C892.921 44.3567 892.669 44.14 892.239 44.14C891.912 44.14 891.667 44.2667 891.504 44.52C891.341 44.7733 891.266 45.1883 891.279 45.765C891.346 45.565 891.472 45.4083 891.659 45.295C891.849 45.1783 892.066 45.12 892.309 45.12C892.659 45.12 892.936 45.2283 893.139 45.445C893.346 45.6583 893.449 45.9533 893.449 46.33C893.449 46.55 893.406 46.75 893.319 46.93C893.236 47.1067 893.106 47.2483 892.929 47.355C892.756 47.4617 892.539 47.515 892.279 47.515C891.782 47.515 891.439 47.3567 891.249 47.04C891.062 46.7233 890.969 46.275 890.969 45.695C890.969 44.4617 891.392 43.845 892.239 43.845C892.559 43.845 892.811 43.9333 892.994 44.11C893.177 44.2833 893.286 44.51 893.319 44.79H892.994ZM892.244 45.42C892.087 45.42 891.939 45.4517 891.799 45.515C891.659 45.5783 891.544 45.675 891.454 45.805C891.367 45.9317 891.324 46.0883 891.324 46.275C891.324 46.545 891.404 46.77 891.564 46.95C891.724 47.13 891.957 47.22 892.264 47.22C892.521 47.22 892.726 47.1417 892.879 46.985C893.032 46.8283 893.109 46.615 893.109 46.345C893.109 46.055 893.034 45.8283 892.884 45.665C892.734 45.5017 892.521 45.42 892.244 45.42ZM895.708 42.8L894.328 48.33H893.983L895.353 42.8H895.708ZM896.115 44.23V43.915H896.965V47.5H896.61V44.23H896.115ZM899.375 42.8L897.995 48.33H897.65L899.02 42.8H899.375ZM899.882 47.225C900.496 46.765 900.969 46.3533 901.302 45.99C901.639 45.6233 901.807 45.265 901.807 44.915C901.807 44.685 901.749 44.5017 901.632 44.365C901.519 44.225 901.332 44.155 901.072 44.155C900.819 44.155 900.622 44.235 900.482 44.395C900.346 44.5517 900.269 44.7617 900.252 45.025H899.912C899.932 44.655 900.046 44.3683 900.252 44.165C900.462 43.9583 900.736 43.855 901.072 43.855C901.396 43.855 901.657 43.9467 901.857 44.13C902.057 44.31 902.157 44.5667 902.157 44.9C902.157 45.3033 901.989 45.695 901.652 46.075C901.319 46.4517 900.907 46.82 900.417 47.18H902.267V47.475H899.882V47.225ZM902.744 47.225C903.357 46.765 903.83 46.3533 904.164 45.99C904.5 45.6233 904.669 45.265 904.669 44.915C904.669 44.685 904.61 44.5017 904.494 44.365C904.38 44.225 904.194 44.155 903.934 44.155C903.68 44.155 903.484 44.235 903.344 44.395C903.207 44.5517 903.13 44.7617 903.114 45.025H902.774C902.794 44.655 902.907 44.3683 903.114 44.165C903.324 43.9583 903.597 43.855 903.934 43.855C904.257 43.855 904.519 43.9467 904.719 44.13C904.919 44.31 905.019 44.5667 905.019 44.9C905.019 45.3033 904.85 45.695 904.514 46.075C904.18 46.4517 903.769 46.82 903.279 47.18H905.129V47.475H902.744V47.225ZM908.817 45.5V45.795H906.872V45.5H908.817ZM913.072 44.79C912.999 44.3567 912.747 44.14 912.317 44.14C911.99 44.14 911.745 44.2667 911.582 44.52C911.419 44.7733 911.344 45.1883 911.357 45.765C911.424 45.565 911.55 45.4083 911.737 45.295C911.927 45.1783 912.144 45.12 912.387 45.12C912.737 45.12 913.014 45.2283 913.217 45.445C913.424 45.6583 913.527 45.9533 913.527 46.33C913.527 46.55 913.484 46.75 913.397 46.93C913.314 47.1067 913.184 47.2483 913.007 47.355C912.834 47.4617 912.617 47.515 912.357 47.515C911.86 47.515 911.517 47.3567 911.327 47.04C911.14 46.7233 911.047 46.275 911.047 45.695C911.047 44.4617 911.47 43.845 912.317 43.845C912.637 43.845 912.889 43.9333 913.072 44.11C913.255 44.2833 913.364 44.51 913.397 44.79H913.072ZM912.322 45.42C912.165 45.42 912.017 45.4517 911.877 45.515C911.737 45.5783 911.622 45.675 911.532 45.805C911.445 45.9317 911.402 46.0883 911.402 46.275C911.402 46.545 911.482 46.77 911.642 46.95C911.802 47.13 912.035 47.22 912.342 47.22C912.599 47.22 912.804 47.1417 912.957 46.985C913.11 46.8283 913.187 46.615 913.187 46.345C913.187 46.055 913.112 45.8283 912.962 45.665C912.812 45.5017 912.599 45.42 912.322 45.42ZM915.787 42.8L914.407 48.33H914.062L915.432 42.8H915.787ZM916.349 44.83C916.372 44.5267 916.489 44.2883 916.699 44.115C916.912 43.9383 917.187 43.85 917.524 43.85C917.747 43.85 917.939 43.89 918.099 43.97C918.259 44.05 918.379 44.16 918.459 44.3C918.542 44.4367 918.584 44.5917 918.584 44.765C918.584 44.975 918.522 45.1567 918.399 45.31C918.275 45.4633 918.1 45.5583 917.874 45.595V45.62C918.11 45.6667 918.299 45.77 918.439 45.93C918.579 46.0867 918.649 46.2933 918.649 46.55C918.649 46.8367 918.552 47.0717 918.359 47.255C918.169 47.435 917.892 47.525 917.529 47.525C917.182 47.525 916.897 47.435 916.674 47.255C916.45 47.0717 916.322 46.8133 916.289 46.48H916.629C916.659 46.7033 916.752 46.885 916.909 47.025C917.065 47.1617 917.272 47.23 917.529 47.23C917.782 47.23 917.975 47.1633 918.109 47.03C918.245 46.8967 918.314 46.7267 918.314 46.52C918.314 46.0133 917.949 45.76 917.219 45.76H917.109V45.465H917.224C917.904 45.465 918.244 45.2433 918.244 44.8C918.244 44.6067 918.18 44.4517 918.054 44.335C917.927 44.215 917.747 44.155 917.514 44.155C917.287 44.155 917.099 44.215 916.949 44.335C916.802 44.4517 916.715 44.6167 916.689 44.83H916.349ZM919.288 45.675C919.288 45.1017 919.377 44.6567 919.553 44.34C919.73 44.0233 920.047 43.865 920.503 43.865C920.96 43.865 921.277 44.0233 921.453 44.34C921.63 44.6567 921.718 45.1017 921.718 45.675C921.718 46.2583 921.63 46.71 921.453 47.03C921.277 47.35 920.96 47.51 920.503 47.51C920.043 47.51 919.725 47.35 919.548 47.03C919.375 46.71 919.288 46.2583 919.288 45.675ZM921.373 45.675C921.373 45.365 921.352 45.1033 921.308 44.89C921.265 44.6767 921.18 44.505 921.053 44.375C920.927 44.245 920.743 44.18 920.503 44.18C920.263 44.18 920.08 44.245 919.953 44.375C919.827 44.505 919.742 44.6767 919.698 44.89C919.655 45.1033 919.633 45.365 919.633 45.675C919.633 45.995 919.655 46.2633 919.698 46.48C919.742 46.6933 919.827 46.865 919.953 46.995C920.08 47.125 920.263 47.19 920.503 47.19C920.743 47.19 920.927 47.125 921.053 46.995C921.18 46.865 921.265 46.6933 921.308 46.48C921.352 46.2633 921.373 45.995 921.373 45.675ZM923.999 42.8L922.619 48.33H922.274L923.644 42.8H923.999ZM924.506 47.225C925.12 46.765 925.593 46.3533 925.926 45.99C926.263 45.6233 926.431 45.265 926.431 44.915C926.431 44.685 926.373 44.5017 926.256 44.365C926.143 44.225 925.956 44.155 925.696 44.155C925.443 44.155 925.246 44.235 925.106 44.395C924.97 44.5517 924.893 44.7617 924.876 45.025H924.536C924.556 44.655 924.67 44.3683 924.876 44.165C925.086 43.9583 925.36 43.855 925.696 43.855C926.02 43.855 926.281 43.9467 926.481 44.13C926.681 44.31 926.781 44.5667 926.781 44.9C926.781 45.3033 926.613 45.695 926.276 46.075C925.943 46.4517 925.531 46.82 925.041 47.18H926.891V47.475H924.506V47.225ZM927.368 47.225C927.981 46.765 928.454 46.3533 928.788 45.99C929.124 45.6233 929.293 45.265 929.293 44.915C929.293 44.685 929.234 44.5017 929.118 44.365C929.004 44.225 928.818 44.155 928.558 44.155C928.304 44.155 928.108 44.235 927.968 44.395C927.831 44.5517 927.754 44.7617 927.738 45.025H927.398C927.418 44.655 927.531 44.3683 927.738 44.165C927.948 43.9583 928.221 43.855 928.558 43.855C928.881 43.855 929.143 43.9467 929.343 44.13C929.543 44.31 929.643 44.5667 929.643 44.9C929.643 45.3033 929.474 45.695 929.138 46.075C928.804 46.4517 928.393 46.82 927.903 47.18H929.753V47.475H927.368V47.225ZM930.434 47.525C930.361 47.525 930.299 47.5 930.249 47.45C930.202 47.4 930.179 47.3383 930.179 47.265C930.179 47.1917 930.202 47.1317 930.249 47.085C930.299 47.035 930.361 47.01 930.434 47.01C930.504 47.01 930.562 47.035 930.609 47.085C930.659 47.1317 930.684 47.1917 930.684 47.265C930.684 47.3383 930.659 47.4 930.609 47.45C930.562 47.5 930.504 47.525 930.434 47.525ZM933.714 47.535C933.484 47.535 933.281 47.495 933.104 47.415C932.931 47.335 932.794 47.2233 932.694 47.08C932.594 46.9367 932.541 46.7767 932.534 46.6H932.904C932.921 46.77 932.996 46.92 933.129 47.05C933.263 47.1767 933.458 47.24 933.714 47.24C933.951 47.24 934.138 47.18 934.274 47.06C934.414 46.9367 934.484 46.7817 934.484 46.595C934.484 46.445 934.446 46.325 934.369 46.235C934.293 46.1417 934.198 46.0733 934.084 46.03C933.971 45.9833 933.814 45.9333 933.614 45.88C933.381 45.8167 933.196 45.755 933.059 45.695C932.923 45.635 932.806 45.5417 932.709 45.415C932.613 45.2883 932.564 45.1167 932.564 44.9C932.564 44.72 932.611 44.56 932.704 44.42C932.798 44.2767 932.929 44.165 933.099 44.085C933.269 44.005 933.464 43.965 933.684 43.965C934.008 43.965 934.268 44.045 934.464 44.205C934.664 44.3617 934.779 44.565 934.809 44.815H934.429C934.406 44.6717 934.328 44.545 934.194 44.435C934.061 44.3217 933.881 44.265 933.654 44.265C933.444 44.265 933.269 44.3217 933.129 44.435C932.989 44.545 932.919 44.6967 932.919 44.89C932.919 45.0367 932.958 45.155 933.034 45.245C933.111 45.335 933.206 45.4033 933.319 45.45C933.436 45.4967 933.593 45.5467 933.789 45.6C934.016 45.6633 934.199 45.7267 934.339 45.79C934.479 45.85 934.598 45.9433 934.694 46.07C934.791 46.1967 934.839 46.3667 934.839 46.58C934.839 46.7433 934.796 46.8983 934.709 47.045C934.623 47.1917 934.494 47.31 934.324 47.4C934.154 47.49 933.951 47.535 933.714 47.535ZM937.986 45.995C937.986 46.115 937.982 46.2067 937.976 46.27H935.711C935.721 46.4767 935.771 46.6533 935.861 46.8C935.951 46.9467 936.069 47.0583 936.216 47.135C936.362 47.2083 936.522 47.245 936.696 47.245C936.922 47.245 937.112 47.19 937.266 47.08C937.422 46.97 937.526 46.8217 937.576 46.635H937.946C937.879 46.9017 937.736 47.12 937.516 47.29C937.299 47.4567 937.026 47.54 936.696 47.54C936.439 47.54 936.209 47.4833 936.006 47.37C935.802 47.2533 935.642 47.09 935.526 46.88C935.412 46.6667 935.356 46.4183 935.356 46.135C935.356 45.8517 935.412 45.6033 935.526 45.39C935.639 45.1767 935.797 45.0133 936.001 44.9C936.204 44.7867 936.436 44.73 936.696 44.73C936.956 44.73 937.182 44.7867 937.376 44.9C937.572 45.0133 937.722 45.1667 937.826 45.36C937.932 45.55 937.986 45.7617 937.986 45.995ZM937.631 45.985C937.634 45.7817 937.592 45.6083 937.506 45.465C937.422 45.3217 937.307 45.2133 937.161 45.14C937.014 45.0667 936.854 45.03 936.681 45.03C936.421 45.03 936.199 45.1133 936.016 45.28C935.832 45.4467 935.731 45.6817 935.711 45.985H937.631ZM941.096 45.995C941.096 46.115 941.093 46.2067 941.086 46.27H938.821C938.831 46.4767 938.881 46.6533 938.971 46.8C939.061 46.9467 939.179 47.0583 939.326 47.135C939.473 47.2083 939.633 47.245 939.806 47.245C940.033 47.245 940.223 47.19 940.376 47.08C940.533 46.97 940.636 46.8217 940.686 46.635H941.056C940.989 46.9017 940.846 47.12 940.626 47.29C940.409 47.4567 940.136 47.54 939.806 47.54C939.549 47.54 939.319 47.4833 939.116 47.37C938.913 47.2533 938.753 47.09 938.636 46.88C938.523 46.6667 938.466 46.4183 938.466 46.135C938.466 45.8517 938.523 45.6033 938.636 45.39C938.749 45.1767 938.908 45.0133 939.111 44.9C939.314 44.7867 939.546 44.73 939.806 44.73C940.066 44.73 940.293 44.7867 940.486 44.9C940.683 45.0133 940.833 45.1667 940.936 45.36C941.043 45.55 941.096 45.7617 941.096 45.995ZM940.741 45.985C940.744 45.7817 940.703 45.6083 940.616 45.465C940.533 45.3217 940.418 45.2133 940.271 45.14C940.124 45.0667 939.964 45.03 939.791 45.03C939.531 45.03 939.309 45.1133 939.126 45.28C938.943 45.4467 938.841 45.6817 938.821 45.985H940.741ZM945.153 44.005V44.295H944.183V47.5H943.833V44.295H942.858V44.005H945.153ZM948.176 45.995C948.176 46.115 948.173 46.2067 948.166 46.27H945.901C945.911 46.4767 945.961 46.6533 946.051 46.8C946.141 46.9467 946.259 47.0583 946.406 47.135C946.553 47.2083 946.713 47.245 946.886 47.245C947.113 47.245 947.303 47.19 947.456 47.08C947.613 46.97 947.716 46.8217 947.766 46.635H948.136C948.069 46.9017 947.926 47.12 947.706 47.29C947.489 47.4567 947.216 47.54 946.886 47.54C946.629 47.54 946.399 47.4833 946.196 47.37C945.993 47.2533 945.833 47.09 945.716 46.88C945.603 46.6667 945.546 46.4183 945.546 46.135C945.546 45.8517 945.603 45.6033 945.716 45.39C945.829 45.1767 945.988 45.0133 946.191 44.9C946.394 44.7867 946.626 44.73 946.886 44.73C947.146 44.73 947.373 44.7867 947.566 44.9C947.763 45.0133 947.913 45.1667 948.016 45.36C948.123 45.55 948.176 45.7617 948.176 45.995ZM947.821 45.985C947.824 45.7817 947.783 45.6083 947.696 45.465C947.613 45.3217 947.498 45.2133 947.351 45.14C947.204 45.0667 947.044 45.03 946.871 45.03C946.611 45.03 946.389 45.1133 946.206 45.28C946.023 45.4467 945.921 45.6817 945.901 45.985H947.821ZM949.167 45.255C949.243 45.085 949.36 44.9533 949.517 44.86C949.677 44.7667 949.872 44.72 950.102 44.72V45.085H950.007C949.753 45.085 949.55 45.1533 949.397 45.29C949.243 45.4267 949.167 45.655 949.167 45.975V47.5H948.817V44.77H949.167V45.255ZM953.878 44.72C954.198 44.72 954.458 44.8217 954.658 45.025C954.861 45.225 954.963 45.5167 954.963 45.9V47.5H954.618V45.94C954.618 45.6433 954.546 45.4167 954.403 45.26C954.26 45.1033 954.065 45.025 953.818 45.025C953.561 45.025 953.356 45.11 953.203 45.28C953.05 45.45 952.973 45.6967 952.973 46.02V47.5H952.628V45.94C952.628 45.6433 952.556 45.4167 952.413 45.26C952.27 45.1033 952.073 45.025 951.823 45.025C951.566 45.025 951.361 45.11 951.208 45.28C951.055 45.45 950.978 45.6967 950.978 46.02V47.5H950.628V44.77H950.978V45.24C951.065 45.07 951.188 44.9417 951.348 44.855C951.508 44.765 951.686 44.72 951.883 44.72C952.12 44.72 952.326 44.7767 952.503 44.89C952.683 45.0033 952.813 45.17 952.893 45.39C952.966 45.1733 953.091 45.0083 953.268 44.895C953.448 44.7783 953.651 44.72 953.878 44.72ZM956.68 47.54C956.367 47.54 956.11 47.4683 955.91 47.325C955.714 47.1783 955.604 46.98 955.58 46.73H955.94C955.957 46.8833 956.029 47.0083 956.155 47.105C956.285 47.1983 956.459 47.245 956.675 47.245C956.865 47.245 957.014 47.2 957.12 47.11C957.23 47.02 957.285 46.9083 957.285 46.775C957.285 46.6817 957.255 46.605 957.195 46.545C957.135 46.485 957.059 46.4383 956.965 46.405C956.875 46.3683 956.752 46.33 956.595 46.29C956.392 46.2367 956.227 46.1833 956.1 46.13C955.974 46.0767 955.865 45.9983 955.775 45.895C955.689 45.7883 955.645 45.6467 955.645 45.47C955.645 45.3367 955.685 45.2133 955.765 45.1C955.845 44.9867 955.959 44.8967 956.105 44.83C956.252 44.7633 956.419 44.73 956.605 44.73C956.899 44.73 957.135 44.805 957.315 44.955C957.495 45.1017 957.592 45.305 957.605 45.565H957.255C957.245 45.405 957.182 45.2767 957.065 45.18C956.952 45.08 956.795 45.03 956.595 45.03C956.419 45.03 956.275 45.0717 956.165 45.155C956.055 45.2383 956 45.3417 956 45.465C956 45.5717 956.032 45.66 956.095 45.73C956.162 45.7967 956.244 45.85 956.34 45.89C956.437 45.9267 956.567 45.9683 956.73 46.015C956.927 46.0683 957.084 46.12 957.2 46.17C957.317 46.22 957.417 46.2933 957.5 46.39C957.584 46.4867 957.627 46.615 957.63 46.775C957.63 46.9217 957.59 47.0533 957.51 47.17C957.43 47.2833 957.319 47.3733 957.175 47.44C957.032 47.5067 956.867 47.54 956.68 47.54ZM959.501 46.13C959.501 45.85 959.556 45.605 959.666 45.395C959.78 45.1817 959.935 45.0183 960.131 44.905C960.331 44.7883 960.556 44.73 960.806 44.73C961.066 44.73 961.29 44.79 961.476 44.91C961.666 45.03 961.803 45.1833 961.886 45.37V44.77H962.236V47.5H961.886V46.895C961.8 47.0817 961.661 47.2367 961.471 47.36C961.285 47.48 961.061 47.54 960.801 47.54C960.555 47.54 960.331 47.4817 960.131 47.365C959.935 47.2483 959.78 47.0833 959.666 46.87C959.556 46.6567 959.501 46.41 959.501 46.13ZM961.886 46.135C961.886 45.915 961.841 45.7217 961.751 45.555C961.661 45.3883 961.538 45.26 961.381 45.17C961.228 45.08 961.058 45.035 960.871 45.035C960.678 45.035 960.505 45.0783 960.351 45.165C960.198 45.2517 960.076 45.3783 959.986 45.545C959.9 45.7083 959.856 45.9033 959.856 46.13C959.856 46.3533 959.9 46.55 959.986 46.72C960.076 46.8867 960.198 47.015 960.351 47.105C960.505 47.1917 960.678 47.235 960.871 47.235C961.058 47.235 961.228 47.19 961.381 47.1C961.538 47.01 961.661 46.8817 961.751 46.715C961.841 46.5483 961.886 46.355 961.886 46.135ZM964.315 44.72C964.642 44.72 964.909 44.8217 965.115 45.025C965.322 45.225 965.425 45.5167 965.425 45.9V47.5H965.08V45.94C965.08 45.6433 965.005 45.4167 964.855 45.26C964.709 45.1033 964.507 45.025 964.25 45.025C963.987 45.025 963.777 45.1083 963.62 45.275C963.464 45.4417 963.385 45.6867 963.385 46.01V47.5H963.035V44.77H963.385V45.235C963.472 45.0683 963.597 44.9417 963.76 44.855C963.924 44.765 964.109 44.72 964.315 44.72ZM966.039 46.13C966.039 45.85 966.096 45.605 966.209 45.395C966.323 45.1817 966.478 45.0183 966.674 44.905C966.874 44.7883 967.099 44.73 967.349 44.73C967.589 44.73 967.806 44.7883 967.999 44.905C968.193 45.0217 968.334 45.1733 968.424 45.36V43.8H968.774V47.5H968.424V46.89C968.341 47.08 968.204 47.2367 968.014 47.36C967.824 47.48 967.601 47.54 967.344 47.54C967.094 47.54 966.869 47.4817 966.669 47.365C966.473 47.2483 966.318 47.0833 966.204 46.87C966.094 46.6567 966.039 46.41 966.039 46.13ZM968.424 46.135C968.424 45.915 968.379 45.7217 968.289 45.555C968.199 45.3883 968.076 45.26 967.919 45.17C967.766 45.08 967.596 45.035 967.409 45.035C967.216 45.035 967.043 45.0783 966.889 45.165C966.736 45.2517 966.614 45.3783 966.524 45.545C966.438 45.7083 966.394 45.9033 966.394 46.13C966.394 46.3533 966.438 46.55 966.524 46.72C966.614 46.8867 966.736 47.015 966.889 47.105C967.043 47.1917 967.216 47.235 967.409 47.235C967.596 47.235 967.766 47.19 967.919 47.1C968.076 47.01 968.199 46.8817 968.289 46.715C968.379 46.5483 968.424 46.355 968.424 46.135ZM970.785 46.135C970.785 45.8517 970.842 45.605 970.955 45.395C971.069 45.1817 971.225 45.0183 971.425 44.905C971.625 44.7883 971.854 44.73 972.11 44.73C972.447 44.73 972.724 44.8133 972.94 44.98C973.16 45.1467 973.302 45.3733 973.365 45.66H972.99C972.944 45.4633 972.842 45.31 972.685 45.2C972.532 45.0867 972.34 45.03 972.11 45.03C971.927 45.03 971.762 45.0717 971.615 45.155C971.469 45.2383 971.352 45.3633 971.265 45.53C971.182 45.6933 971.14 45.895 971.14 46.135C971.14 46.375 971.182 46.5783 971.265 46.745C971.352 46.9117 971.469 47.0367 971.615 47.12C971.762 47.2033 971.927 47.245 972.11 47.245C972.34 47.245 972.532 47.19 972.685 47.08C972.842 46.9667 972.944 46.81 972.99 46.61H973.365C973.302 46.89 973.16 47.115 972.94 47.285C972.72 47.455 972.444 47.54 972.11 47.54C971.854 47.54 971.625 47.4833 971.425 47.37C971.225 47.2533 971.069 47.09 970.955 46.88C970.842 46.6667 970.785 46.4183 970.785 46.135ZM975.207 47.54C974.95 47.54 974.718 47.4833 974.512 47.37C974.308 47.2533 974.147 47.09 974.027 46.88C973.91 46.6667 973.852 46.4183 973.852 46.135C973.852 45.8517 973.912 45.605 974.032 45.395C974.152 45.1817 974.315 45.0183 974.522 44.905C974.728 44.7883 974.96 44.73 975.217 44.73C975.473 44.73 975.705 44.7883 975.912 44.905C976.122 45.0183 976.285 45.1817 976.402 45.395C976.522 45.605 976.582 45.8517 976.582 46.135C976.582 46.415 976.522 46.6617 976.402 46.875C976.282 47.0883 976.117 47.2533 975.907 47.37C975.697 47.4833 975.463 47.54 975.207 47.54ZM975.207 47.235C975.387 47.235 975.553 47.195 975.707 47.115C975.86 47.0317 975.983 46.9083 976.077 46.745C976.173 46.5783 976.222 46.375 976.222 46.135C976.222 45.895 976.175 45.6933 976.082 45.53C975.988 45.3633 975.865 45.24 975.712 45.16C975.558 45.0767 975.392 45.035 975.212 45.035C975.032 45.035 974.865 45.0767 974.712 45.16C974.558 45.24 974.435 45.3633 974.342 45.53C974.252 45.6933 974.207 45.895 974.207 46.135C974.207 46.375 974.252 46.5783 974.342 46.745C974.435 46.9083 974.557 47.0317 974.707 47.115C974.86 47.195 975.027 47.235 975.207 47.235ZM978.5 44.72C978.826 44.72 979.093 44.8217 979.3 45.025C979.506 45.225 979.61 45.5167 979.61 45.9V47.5H979.265V45.94C979.265 45.6433 979.19 45.4167 979.04 45.26C978.893 45.1033 978.691 45.025 978.435 45.025C978.171 45.025 977.961 45.1083 977.805 45.275C977.648 45.4417 977.57 45.6867 977.57 46.01V47.5H977.22V44.77H977.57V45.235C977.656 45.0683 977.781 44.9417 977.945 44.855C978.108 44.765 978.293 44.72 978.5 44.72ZM980.224 46.13C980.224 45.85 980.281 45.605 980.394 45.395C980.507 45.1817 980.662 45.0183 980.859 44.905C981.059 44.7883 981.284 44.73 981.534 44.73C981.774 44.73 981.991 44.7883 982.184 44.905C982.377 45.0217 982.519 45.1733 982.609 45.36V43.8H982.959V47.5H982.609V46.89C982.526 47.08 982.389 47.2367 982.199 47.36C982.009 47.48 981.786 47.54 981.529 47.54C981.279 47.54 981.054 47.4817 980.854 47.365C980.657 47.2483 980.502 47.0833 980.389 46.87C980.279 46.6567 980.224 46.41 980.224 46.13ZM982.609 46.135C982.609 45.915 982.564 45.7217 982.474 45.555C982.384 45.3883 982.261 45.26 982.104 45.17C981.951 45.08 981.781 45.035 981.594 45.035C981.401 45.035 981.227 45.0783 981.074 45.165C980.921 45.2517 980.799 45.3783 980.709 45.545C980.622 45.7083 980.579 45.9033 980.579 46.13C980.579 46.3533 980.622 46.55 980.709 46.72C980.799 46.8867 980.921 47.015 981.074 47.105C981.227 47.1917 981.401 47.235 981.594 47.235C981.781 47.235 981.951 47.19 982.104 47.1C982.261 47.01 982.384 46.8817 982.474 46.715C982.564 46.5483 982.609 46.355 982.609 46.135ZM983.933 44.255C983.863 44.255 983.803 44.23 983.753 44.18C983.703 44.13 983.678 44.0683 983.678 43.995C983.678 43.9217 983.703 43.8617 983.753 43.815C983.803 43.765 983.863 43.74 983.933 43.74C984.003 43.74 984.063 43.765 984.113 43.815C984.163 43.8617 984.188 43.9217 984.188 43.995C984.188 44.0683 984.163 44.13 984.113 44.18C984.063 44.23 984.003 44.255 983.933 44.255ZM984.108 44.77V47.5H983.758V44.77H984.108ZM985.355 45.065V46.76C985.355 46.9267 985.387 47.0417 985.45 47.105C985.514 47.1683 985.625 47.2 985.785 47.2H986.105V47.5H985.73C985.484 47.5 985.3 47.4433 985.18 47.33C985.06 47.2133 985 47.0233 985 46.76V45.065H984.62V44.77H985V44.085H985.355V44.77H986.105V45.065H985.355ZM986.858 44.255C986.788 44.255 986.728 44.23 986.678 44.18C986.628 44.13 986.603 44.0683 986.603 43.995C986.603 43.9217 986.628 43.8617 986.678 43.815C986.728 43.765 986.788 43.74 986.858 43.74C986.928 43.74 986.988 43.765 987.038 43.815C987.088 43.8617 987.113 43.9217 987.113 43.995C987.113 44.0683 987.088 44.13 987.038 44.18C986.988 44.23 986.928 44.255 986.858 44.255ZM987.033 44.77V47.5H986.683V44.77H987.033ZM989.02 47.54C988.764 47.54 988.532 47.4833 988.325 47.37C988.122 47.2533 987.96 47.09 987.84 46.88C987.724 46.6667 987.665 46.4183 987.665 46.135C987.665 45.8517 987.725 45.605 987.845 45.395C987.965 45.1817 988.129 45.0183 988.335 44.905C988.542 44.7883 988.774 44.73 989.03 44.73C989.287 44.73 989.519 44.7883 989.725 44.905C989.935 45.0183 990.099 45.1817 990.215 45.395C990.335 45.605 990.395 45.8517 990.395 46.135C990.395 46.415 990.335 46.6617 990.215 46.875C990.095 47.0883 989.93 47.2533 989.72 47.37C989.51 47.4833 989.277 47.54 989.02 47.54ZM989.02 47.235C989.2 47.235 989.367 47.195 989.52 47.115C989.674 47.0317 989.797 46.9083 989.89 46.745C989.987 46.5783 990.035 46.375 990.035 46.135C990.035 45.895 989.989 45.6933 989.895 45.53C989.802 45.3633 989.679 45.24 989.525 45.16C989.372 45.0767 989.205 45.035 989.025 45.035C988.845 45.035 988.679 45.0767 988.525 45.16C988.372 45.24 988.249 45.3633 988.155 45.53C988.065 45.6933 988.02 45.895 988.02 46.135C988.02 46.375 988.065 46.5783 988.155 46.745C988.249 46.9083 988.37 47.0317 988.52 47.115C988.674 47.195 988.84 47.235 989.02 47.235ZM992.313 44.72C992.64 44.72 992.907 44.8217 993.113 45.025C993.32 45.225 993.423 45.5167 993.423 45.9V47.5H993.078V45.94C993.078 45.6433 993.003 45.4167 992.853 45.26C992.707 45.1033 992.505 45.025 992.248 45.025C991.985 45.025 991.775 45.1083 991.618 45.275C991.462 45.4417 991.383 45.6867 991.383 46.01V47.5H991.033V44.77H991.383V45.235C991.47 45.0683 991.595 44.9417 991.758 44.855C991.922 44.765 992.107 44.72 992.313 44.72ZM995.137 47.54C994.824 47.54 994.567 47.4683 994.367 47.325C994.171 47.1783 994.061 46.98 994.037 46.73H994.397C994.414 46.8833 994.486 47.0083 994.612 47.105C994.742 47.1983 994.916 47.245 995.132 47.245C995.322 47.245 995.471 47.2 995.577 47.11C995.687 47.02 995.742 46.9083 995.742 46.775C995.742 46.6817 995.712 46.605 995.652 46.545C995.592 46.485 995.516 46.4383 995.422 46.405C995.332 46.3683 995.209 46.33 995.052 46.29C994.849 46.2367 994.684 46.1833 994.557 46.13C994.431 46.0767 994.322 45.9983 994.232 45.895C994.146 45.7883 994.102 45.6467 994.102 45.47C994.102 45.3367 994.142 45.2133 994.222 45.1C994.302 44.9867 994.416 44.8967 994.562 44.83C994.709 44.7633 994.876 44.73 995.062 44.73C995.356 44.73 995.592 44.805 995.772 44.955C995.952 45.1017 996.049 45.305 996.062 45.565H995.712C995.702 45.405 995.639 45.2767 995.522 45.18C995.409 45.08 995.252 45.03 995.052 45.03C994.876 45.03 994.732 45.0717 994.622 45.155C994.512 45.2383 994.457 45.3417 994.457 45.465C994.457 45.5717 994.489 45.66 994.552 45.73C994.619 45.7967 994.701 45.85 994.797 45.89C994.894 45.9267 995.024 45.9683 995.187 46.015C995.384 46.0683 995.541 46.12 995.657 46.17C995.774 46.22 995.874 46.2933 995.957 46.39C996.041 46.4867 996.084 46.615 996.087 46.775C996.087 46.9217 996.047 47.0533 995.967 47.17C995.887 47.2833 995.776 47.3733 995.632 47.44C995.489 47.5067 995.324 47.54 995.137 47.54ZM999.193 45.065H998.558V47.5H998.208V45.065H997.828V44.77H998.208V44.58C998.208 44.2833 998.283 44.065 998.433 43.925C998.587 43.785 998.833 43.715 999.173 43.715V44.015C998.947 44.015 998.787 44.0583 998.693 44.145C998.603 44.2317 998.558 44.3767 998.558 44.58V44.77H999.193V45.065ZM1000.94 47.54C1000.68 47.54 1000.45 47.4833 1000.24 47.37C1000.04 47.2533 999.879 47.09 999.759 46.88C999.643 46.6667 999.584 46.4183 999.584 46.135C999.584 45.8517 999.644 45.605 999.764 45.395C999.884 45.1817 1000.05 45.0183 1000.25 44.905C1000.46 44.7883 1000.69 44.73 1000.95 44.73C1001.21 44.73 1001.44 44.7883 1001.64 44.905C1001.85 45.0183 1002.02 45.1817 1002.13 45.395C1002.25 45.605 1002.31 45.8517 1002.31 46.135C1002.31 46.415 1002.25 46.6617 1002.13 46.875C1002.01 47.0883 1001.85 47.2533 1001.64 47.37C1001.43 47.4833 1001.2 47.54 1000.94 47.54ZM1000.94 47.235C1001.12 47.235 1001.29 47.195 1001.44 47.115C1001.59 47.0317 1001.72 46.9083 1001.81 46.745C1001.91 46.5783 1001.95 46.375 1001.95 46.135C1001.95 45.895 1001.91 45.6933 1001.81 45.53C1001.72 45.3633 1001.6 45.24 1001.44 45.16C1001.29 45.0767 1001.12 45.035 1000.94 45.035C1000.76 45.035 1000.6 45.0767 1000.44 45.16C1000.29 45.24 1000.17 45.3633 1000.07 45.53C999.984 45.6933 999.939 45.895 999.939 46.135C999.939 46.375 999.984 46.5783 1000.07 46.745C1000.17 46.9083 1000.29 47.0317 1000.44 47.115C1000.59 47.195 1000.76 47.235 1000.94 47.235ZM1003.3 45.255C1003.38 45.085 1003.5 44.9533 1003.65 44.86C1003.81 44.7667 1004.01 44.72 1004.24 44.72V45.085H1004.14C1003.89 45.085 1003.69 45.1533 1003.53 45.29C1003.38 45.4267 1003.3 45.655 1003.3 45.975V47.5H1002.95V44.77H1003.3V45.255ZM1009.39 44.72C1009.71 44.72 1009.97 44.8217 1010.17 45.025C1010.37 45.225 1010.47 45.5167 1010.47 45.9V47.5H1010.13V45.94C1010.13 45.6433 1010.05 45.4167 1009.91 45.26C1009.77 45.1033 1009.57 45.025 1009.33 45.025C1009.07 45.025 1008.86 45.11 1008.71 45.28C1008.56 45.45 1008.48 45.6967 1008.48 46.02V47.5H1008.14V45.94C1008.14 45.6433 1008.06 45.4167 1007.92 45.26C1007.78 45.1033 1007.58 45.025 1007.33 45.025C1007.07 45.025 1006.87 45.11 1006.72 45.28C1006.56 45.45 1006.49 45.6967 1006.49 46.02V47.5H1006.14V44.77H1006.49V45.24C1006.57 45.07 1006.7 44.9417 1006.86 44.855C1007.02 44.765 1007.19 44.72 1007.39 44.72C1007.63 44.72 1007.83 44.7767 1008.01 44.89C1008.19 45.0033 1008.32 45.17 1008.4 45.39C1008.47 45.1733 1008.6 45.0083 1008.78 44.895C1008.96 44.7783 1009.16 44.72 1009.39 44.72ZM1012.44 47.54C1012.19 47.54 1011.95 47.4833 1011.75 47.37C1011.54 47.2533 1011.38 47.09 1011.26 46.88C1011.15 46.6667 1011.09 46.4183 1011.09 46.135C1011.09 45.8517 1011.15 45.605 1011.27 45.395C1011.39 45.1817 1011.55 45.0183 1011.76 44.905C1011.96 44.7883 1012.2 44.73 1012.45 44.73C1012.71 44.73 1012.94 44.7883 1013.15 44.905C1013.36 45.0183 1013.52 45.1817 1013.64 45.395C1013.76 45.605 1013.82 45.8517 1013.82 46.135C1013.82 46.415 1013.76 46.6617 1013.64 46.875C1013.52 47.0883 1013.35 47.2533 1013.14 47.37C1012.93 47.4833 1012.7 47.54 1012.44 47.54ZM1012.44 47.235C1012.62 47.235 1012.79 47.195 1012.94 47.115C1013.1 47.0317 1013.22 46.9083 1013.31 46.745C1013.41 46.5783 1013.46 46.375 1013.46 46.135C1013.46 45.895 1013.41 45.6933 1013.32 45.53C1013.22 45.3633 1013.1 45.24 1012.95 45.16C1012.79 45.0767 1012.63 45.035 1012.45 45.035C1012.27 45.035 1012.1 45.0767 1011.95 45.16C1011.79 45.24 1011.67 45.3633 1011.58 45.53C1011.49 45.6933 1011.44 45.895 1011.44 46.135C1011.44 46.375 1011.49 46.5783 1011.58 46.745C1011.67 46.9083 1011.79 47.0317 1011.94 47.115C1012.1 47.195 1012.26 47.235 1012.44 47.235ZM1014.81 45.255C1014.88 45.085 1015 44.9533 1015.16 44.86C1015.32 44.7667 1015.51 44.72 1015.74 44.72V45.085H1015.65C1015.39 45.085 1015.19 45.1533 1015.04 45.29C1014.88 45.4267 1014.81 45.655 1014.81 45.975V47.5H1014.46V44.77H1014.81V45.255ZM1018.74 45.995C1018.74 46.115 1018.73 46.2067 1018.73 46.27H1016.46C1016.47 46.4767 1016.52 46.6533 1016.61 46.8C1016.7 46.9467 1016.82 47.0583 1016.97 47.135C1017.11 47.2083 1017.27 47.245 1017.45 47.245C1017.67 47.245 1017.86 47.19 1018.02 47.08C1018.17 46.97 1018.28 46.8217 1018.33 46.635H1018.7C1018.63 46.9017 1018.49 47.12 1018.27 47.29C1018.05 47.4567 1017.78 47.54 1017.45 47.54C1017.19 47.54 1016.96 47.4833 1016.76 47.37C1016.55 47.2533 1016.39 47.09 1016.28 46.88C1016.16 46.6667 1016.11 46.4183 1016.11 46.135C1016.11 45.8517 1016.16 45.6033 1016.28 45.39C1016.39 45.1767 1016.55 45.0133 1016.75 44.9C1016.96 44.7867 1017.19 44.73 1017.45 44.73C1017.71 44.73 1017.93 44.7867 1018.13 44.9C1018.32 45.0133 1018.47 45.1667 1018.58 45.36C1018.68 45.55 1018.74 45.7617 1018.74 45.995ZM1018.38 45.985C1018.39 45.7817 1018.34 45.6083 1018.26 45.465C1018.17 45.3217 1018.06 45.2133 1017.91 45.14C1017.77 45.0667 1017.61 45.03 1017.43 45.03C1017.17 45.03 1016.95 45.1133 1016.77 45.28C1016.58 45.4467 1016.48 45.6817 1016.46 45.985H1018.38ZM1020.59 46.13C1020.59 45.85 1020.65 45.605 1020.76 45.395C1020.87 45.1817 1021.03 45.0183 1021.23 44.905C1021.43 44.7883 1021.65 44.73 1021.9 44.73C1022.14 44.73 1022.36 44.7883 1022.55 44.905C1022.74 45.0217 1022.89 45.1733 1022.98 45.36V43.8H1023.33V47.5H1022.98V46.89C1022.89 47.08 1022.76 47.2367 1022.57 47.36C1022.38 47.48 1022.15 47.54 1021.9 47.54C1021.65 47.54 1021.42 47.4817 1021.22 47.365C1021.02 47.2483 1020.87 47.0833 1020.76 46.87C1020.65 46.6567 1020.59 46.41 1020.59 46.13ZM1022.98 46.135C1022.98 45.915 1022.93 45.7217 1022.84 45.555C1022.75 45.3883 1022.63 45.26 1022.47 45.17C1022.32 45.08 1022.15 45.035 1021.96 45.035C1021.77 45.035 1021.59 45.0783 1021.44 45.165C1021.29 45.2517 1021.17 45.3783 1021.08 45.545C1020.99 45.7083 1020.95 45.9033 1020.95 46.13C1020.95 46.3533 1020.99 46.55 1021.08 46.72C1021.17 46.8867 1021.29 47.015 1021.44 47.105C1021.59 47.1917 1021.77 47.235 1021.96 47.235C1022.15 47.235 1022.32 47.19 1022.47 47.1C1022.63 47.01 1022.75 46.8817 1022.84 46.715C1022.93 46.5483 1022.98 46.355 1022.98 46.135ZM1026.59 45.995C1026.59 46.115 1026.59 46.2067 1026.58 46.27H1024.32C1024.33 46.4767 1024.38 46.6533 1024.47 46.8C1024.56 46.9467 1024.68 47.0583 1024.82 47.135C1024.97 47.2083 1025.13 47.245 1025.3 47.245C1025.53 47.245 1025.72 47.19 1025.87 47.08C1026.03 46.97 1026.13 46.8217 1026.18 46.635H1026.55C1026.49 46.9017 1026.34 47.12 1026.12 47.29C1025.91 47.4567 1025.63 47.54 1025.3 47.54C1025.05 47.54 1024.82 47.4833 1024.61 47.37C1024.41 47.2533 1024.25 47.09 1024.13 46.88C1024.02 46.6667 1023.96 46.4183 1023.96 46.135C1023.96 45.8517 1024.02 45.6033 1024.13 45.39C1024.25 45.1767 1024.41 45.0133 1024.61 44.9C1024.81 44.7867 1025.04 44.73 1025.3 44.73C1025.56 44.73 1025.79 44.7867 1025.98 44.9C1026.18 45.0133 1026.33 45.1667 1026.43 45.36C1026.54 45.55 1026.59 45.7617 1026.59 45.995ZM1026.24 45.985C1026.24 45.7817 1026.2 45.6083 1026.11 45.465C1026.03 45.3217 1025.92 45.2133 1025.77 45.14C1025.62 45.0667 1025.46 45.03 1025.29 45.03C1025.03 45.03 1024.81 45.1133 1024.62 45.28C1024.44 45.4467 1024.34 45.6817 1024.32 45.985H1026.24ZM1027.69 45.065V46.76C1027.69 46.9267 1027.72 47.0417 1027.78 47.105C1027.85 47.1683 1027.96 47.2 1028.12 47.2H1028.44V47.5H1028.06C1027.82 47.5 1027.63 47.4433 1027.51 47.33C1027.39 47.2133 1027.33 47.0233 1027.33 46.76V45.065H1026.95V44.77H1027.33V44.085H1027.69V44.77H1028.44V45.065H1027.69ZM1028.86 46.13C1028.86 45.85 1028.91 45.605 1029.02 45.395C1029.14 45.1817 1029.29 45.0183 1029.49 44.905C1029.69 44.7883 1029.91 44.73 1030.16 44.73C1030.42 44.73 1030.65 44.79 1030.83 44.91C1031.02 45.03 1031.16 45.1833 1031.24 45.37V44.77H1031.59V47.5H1031.24V46.895C1031.16 47.0817 1031.02 47.2367 1030.83 47.36C1030.64 47.48 1030.42 47.54 1030.16 47.54C1029.91 47.54 1029.69 47.4817 1029.49 47.365C1029.29 47.2483 1029.14 47.0833 1029.02 46.87C1028.91 46.6567 1028.86 46.41 1028.86 46.13ZM1031.24 46.135C1031.24 45.915 1031.2 45.7217 1031.11 45.555C1031.02 45.3883 1030.89 45.26 1030.74 45.17C1030.58 45.08 1030.41 45.035 1030.23 45.035C1030.03 45.035 1029.86 45.0783 1029.71 45.165C1029.55 45.2517 1029.43 45.3783 1029.34 45.545C1029.26 45.7083 1029.21 45.9033 1029.21 46.13C1029.21 46.3533 1029.26 46.55 1029.34 46.72C1029.43 46.8867 1029.55 47.015 1029.71 47.105C1029.86 47.1917 1030.03 47.235 1030.23 47.235C1030.41 47.235 1030.58 47.19 1030.74 47.1C1030.89 47.01 1031.02 46.8817 1031.11 46.715C1031.2 46.5483 1031.24 46.355 1031.24 46.135ZM1032.57 44.255C1032.5 44.255 1032.44 44.23 1032.39 44.18C1032.34 44.13 1032.31 44.0683 1032.31 43.995C1032.31 43.9217 1032.34 43.8617 1032.39 43.815C1032.44 43.765 1032.5 43.74 1032.57 43.74C1032.64 43.74 1032.7 43.765 1032.75 43.815C1032.8 43.8617 1032.82 43.9217 1032.82 43.995C1032.82 44.0683 1032.8 44.13 1032.75 44.18C1032.7 44.23 1032.64 44.255 1032.57 44.255ZM1032.74 44.77V47.5H1032.39V44.77H1032.74ZM1033.88 43.8V47.5H1033.53V43.8H1033.88ZM1035.62 47.54C1035.3 47.54 1035.05 47.4683 1034.85 47.325C1034.65 47.1783 1034.54 46.98 1034.52 46.73H1034.88C1034.89 46.8833 1034.96 47.0083 1035.09 47.105C1035.22 47.1983 1035.39 47.245 1035.61 47.245C1035.8 47.245 1035.95 47.2 1036.06 47.11C1036.17 47.02 1036.22 46.9083 1036.22 46.775C1036.22 46.6817 1036.19 46.605 1036.13 46.545C1036.07 46.485 1035.99 46.4383 1035.9 46.405C1035.81 46.3683 1035.69 46.33 1035.53 46.29C1035.33 46.2367 1035.16 46.1833 1035.04 46.13C1034.91 46.0767 1034.8 45.9983 1034.71 45.895C1034.62 45.7883 1034.58 45.6467 1034.58 45.47C1034.58 45.3367 1034.62 45.2133 1034.7 45.1C1034.78 44.9867 1034.89 44.8967 1035.04 44.83C1035.19 44.7633 1035.35 44.73 1035.54 44.73C1035.83 44.73 1036.07 44.805 1036.25 44.955C1036.43 45.1017 1036.53 45.305 1036.54 45.565H1036.19C1036.18 45.405 1036.12 45.2767 1036 45.18C1035.89 45.08 1035.73 45.03 1035.53 45.03C1035.35 45.03 1035.21 45.0717 1035.1 45.155C1034.99 45.2383 1034.94 45.3417 1034.94 45.465C1034.94 45.5717 1034.97 45.66 1035.03 45.73C1035.1 45.7967 1035.18 45.85 1035.28 45.89C1035.37 45.9267 1035.5 45.9683 1035.67 46.015C1035.86 46.0683 1036.02 46.12 1036.14 46.17C1036.25 46.22 1036.35 46.2933 1036.44 46.39C1036.52 46.4867 1036.56 46.615 1036.57 46.775C1036.57 46.9217 1036.53 47.0533 1036.45 47.17C1036.37 47.2833 1036.25 47.3733 1036.11 47.44C1035.97 47.5067 1035.8 47.54 1035.62 47.54Z" fill="white"/>
<path d="M1074.09 25.98C1071.57 25.98 1069.81 27.756 1069.81 30.276C1069.81 32.796 1071.58 34.56 1074.1 34.56C1076.32 34.56 1077.73 33.108 1078.16 31.656V29.748H1073.7V31.26H1076.3C1075.99 32.208 1075.28 32.748 1074.26 32.748C1072.78 32.748 1071.9 31.836 1071.9 30.276C1071.9 28.812 1072.77 27.876 1074.09 27.876C1074.86 27.876 1075.44 28.176 1075.75 28.74H1078.02C1077.57 27.012 1076.11 25.98 1074.09 25.98ZM1082.25 29.352C1082.93 29.352 1083.51 29.772 1083.51 30.504H1080.94C1081.06 29.76 1081.58 29.352 1082.25 29.352ZM1085.45 32.28H1083.27C1083.1 32.64 1082.78 32.928 1082.2 32.928C1081.54 32.928 1081 32.52 1080.93 31.644H1085.57C1085.6 31.44 1085.61 31.236 1085.61 31.044C1085.61 29.004 1084.23 27.708 1082.27 27.708C1080.28 27.708 1078.89 29.028 1078.89 31.152C1078.89 33.276 1080.3 34.596 1082.27 34.596C1083.94 34.596 1085.13 33.588 1085.45 32.28ZM1087.02 32.172C1087.02 33.912 1087.99 34.5 1089.38 34.5H1090.42V32.76H1089.69C1089.24 32.76 1089.07 32.592 1089.07 32.196V29.508H1090.41V27.804H1089.07V26.172H1087.02V27.804H1086.2V29.508H1087.02V32.172ZM1093.7 31.14C1093.7 33.252 1095.01 34.596 1096.65 34.596C1097.64 34.596 1098.35 34.152 1098.72 33.54V34.5H1100.77V25.62H1098.72V28.728C1098.31 28.116 1097.54 27.708 1096.65 27.708C1095.01 27.708 1093.7 29.028 1093.7 31.14ZM1098.72 31.152C1098.72 32.22 1098.03 32.808 1097.25 32.808C1096.49 32.808 1095.79 32.208 1095.79 31.14C1095.79 30.072 1096.49 29.496 1097.25 29.496C1098.03 29.496 1098.72 30.084 1098.72 31.152ZM1105.21 29.352C1105.89 29.352 1106.47 29.772 1106.47 30.504H1103.9C1104.02 29.76 1104.53 29.352 1105.21 29.352ZM1108.41 32.28H1106.23C1106.06 32.64 1105.73 32.928 1105.16 32.928C1104.5 32.928 1103.96 32.52 1103.89 31.644H1108.53C1108.55 31.44 1108.57 31.236 1108.57 31.044C1108.57 29.004 1107.19 27.708 1105.23 27.708C1103.24 27.708 1101.85 29.028 1101.85 31.152C1101.85 33.276 1103.26 34.596 1105.23 34.596C1106.9 34.596 1108.09 33.588 1108.41 32.28ZM1109.24 31.14C1109.24 33.252 1110.55 34.596 1112.18 34.596C1113.18 34.596 1113.88 34.14 1114.26 33.552V34.5H1116.31V27.804H1114.26V28.752C1113.9 28.164 1113.19 27.708 1112.19 27.708C1110.55 27.708 1109.24 29.028 1109.24 31.14ZM1114.26 31.152C1114.26 32.22 1113.57 32.808 1112.79 32.808C1112.02 32.808 1111.33 32.208 1111.33 31.14C1111.33 30.072 1112.02 29.496 1112.79 29.496C1113.57 29.496 1114.26 30.084 1114.26 31.152ZM1117.79 34.5H1119.84V25.62H1117.79V34.5Z" fill="white"/>
<rect x="1059" y="11.5" width="72" height="38" rx="10" stroke="white" stroke-width="2"/>
</g>
<defs>
<clipPath id="clip0_2048_6528">
<rect width="1920" height="60" fill="white"/>
</clipPath>
</defs>
</svg>
